<?xml version="1.0" standalone="no"?>
<!DOCTYPE svg PUBLIC "-//W3C//DTD SVG 1.1//EN" "http://www.w3.org/Graphics/SVG/1.1/DTD/svg11.dtd" >
<!--
2013-9-30: Created.
-->
<svg>
<metadata>
Created by iconfont
</metadata>
<defs>

<font id="font_family" horiz-adv-x="1024" >
  <font-face
    font-family="font_family"
    font-weight="500"
    font-stretch="normal"
    units-per-em="1024"
    ascent="896"
    descent="-128"
  />
    <missing-glyph />
    
    <glyph glyph-name="x" unicode="x" horiz-adv-x="1001"
d="M281 543q-27 -1 -53 -1h-83q-18 0 -36.5 -6t-32.5 -18.5t-23 -32t-9 -45.5v-76h912v41q0 16 -0.5 30t-0.5 18q0 13 -5 29t-17 29.5t-31.5 22.5t-49.5 9h-133v-97h-438v97zM955 310v-52q0 -23 0.5 -52t0.5 -58t-10.5 -47.5t-26 -30t-33 -16t-31.5 -4.5q-14 -1 -29.5 -0.5
t-29.5 0.5h-32l-45 128h-439l-44 -128h-29h-34q-20 0 -45 1q-25 0 -41 9.5t-25.5 23t-13.5 29.5t-4 30v167h911zM163 247q-12 0 -21 -8.5t-9 -21.5t9 -21.5t21 -8.5q13 0 22 8.5t9 21.5t-9 21.5t-22 8.5zM316 123q-8 -26 -14 -48q-5 -19 -10.5 -37t-7.5 -25t-3 -15t1 -14.5
t9.5 -10.5t21.5 -4h37h67h81h80h64h36q23 0 34 12t2 38q-5 13 -9.5 30.5t-9.5 34.5q-5 19 -11 39h-368zM336 498v228q0 11 2.5 23t10 21.5t20.5 15.5t34 6h188q31 0 51.5 -14.5t20.5 -52.5v-227h-327z" />
    

    
    <glyph glyph-name="customizing_binding" unicode="&#58956;" d="M287.9 73c-23.6 0-47.2 9-65.2 27L91 231.7c-17.4 17.4-27 40.6-27 65.2s9.6 47.8 27 65.2l240.2 240.2c36 36 94.5 36 130.5 0l131.7-131.7c17.4-17.4 27-40.6 27-65.2s-9.6-47.8-27-65.2L550 296.8c-6.1-6.1-15.9-6.1-22 0s-6.1 15.9 0 22l43.4 43.4c11.5 11.6 17.9 26.9 17.9 43.2 0 16.3-6.4 31.7-17.9 43.2L439.6 580.3c-23.8 23.8-62.6 23.8-86.5 0L113 340.1c-11.5-11.6-17.9-26.9-17.9-43.2 0-16.3 6.4-31.7 17.9-43.2L244.7 122c23.8-23.8 62.6-23.8 86.5 0l91.5 91.5c6.1 6.1 15.9 6.1 22 0s6.1-15.9 0-22L353.2 100c-18-18-41.6-27-65.3-27zM627.6 138.7c-23.6 0-47.2 9-65.2 27L430.7 297.4c-36 36-36 94.5 0 130.5l31.1 31.1c6.1 6.1 15.9 6.1 22 0s6.1-15.9 0-22l-31.1-31.1c-23.8-23.8-23.8-62.6 0-86.5l131.7-131.7c23.8-23.8 62.6-23.8 86.5 0L911 427.9c11.5 11.6 17.9 26.9 17.9 43.2s-6.4 31.7-17.9 43.2L779.3 646c-23.8 23.8-62.6 23.8-86.5 0L587.1 540.3c-6.1-6.1-15.9-6.1-22 0s-6.1 15.9 0 22L670.8 668c36 36 94.5 36 130.4 0L933 536.3c17.4-17.4 27-40.6 27-65.2s-9.6-47.8-27-65.2L692.8 165.7c-18-18-41.6-27-65.2-27z"  horiz-adv-x="1024" />

    
    <glyph glyph-name="customizing_detectio" unicode="&#58957;" d="M490.9-15.5c-233.7 0-423.8 190.1-423.8 423.8C67.1 641.9 257.2 832 490.9 832c113.2 0 219.6-44.1 299.6-124.1 8.7-8.7 8.7-22.9 0-31.6-8.7-8.7-22.9-8.7-31.6 0-71.6 71.6-166.8 111-268 111-209 0-379-170-379-379s170-379 379-379 379 170 379 379c0 54.5-11.3 107-33.6 156.2-5.1 11.3-0.1 24.5 11.1 29.6 11.2 5.1 24.5 0.1 29.6-11.1 24.9-55.1 37.6-113.8 37.6-174.7 0-233.7-190.1-423.8-423.7-423.8zM620 333.2c-5.1 0-10.2 1.7-14.3 5.2l-143.9 120-82.8-91.8c-3.7-4.1-8.8-6.7-14.4-7.3l-105-10.6c-12.4-1.4-23.3 7.7-24.5 20s7.7 23.3 20 24.5l96.4 9.7L443 504.3c8 8.9 21.7 9.9 30.9 2.2L622 383.1l31.2 19c3.5 2.2 7.6 3 11.8 3h100.7c12.4 0 22.4-9.7 22.4-22s-10-22-22.4-22h-94.3l-39.5-24.5c-3.8-2.3-7.9-3.4-11.9-3.4zM934.5-64c-6 0-12 2.4-16.4 7.1L767.8 104.7c-8.4 9-7.9 23.2 1.1 31.6 9.1 8.4 23.2 7.9 31.6-1.1l150.4-161.5c8.4-9 7.9-23.2-1.1-31.6-4.4-4.1-9.8-6.1-15.3-6.1z"  horiz-adv-x="1024" />

    
    <glyph glyph-name="customizing_push" unicode="&#58958;" d="M508.1 48.6c-4.8 0-9.4 1.8-12.9 5.2L357 185.7c-7.4 7.1-7.7 18.9-0.6 26.4 7.1 7.5 18.9 7.7 26.3 0.6L504.9 96l392.7 589.8-780.9-225.9 85.2-92.8c7-7.6 6.5-19.4-1.1-26.3-7.6-7-19.4-6.5-26.3 1.1L68.9 456.8c-4.4 4.7-6 11.4-4.2 17.6 1.7 6.2 6.6 11.1 12.8 12.9l858.7 248.5c7.5 2.2 15.6-0.6 20.2-6.9 4.6-6.3 4.8-14.8 0.5-21.3L523.6 56.9c-3.1-4.6-8-7.6-13.5-8.2-0.7-0.1-1.3-0.1-2-0.1zM256.5 31.5c-2.8 0-5.7 0.6-8.3 2-6.7 3.3-10.7 10.3-10.3 17.7l12.4 225.2c0.3 5.8 3.3 11.1 8.1 14.4l436.4 296.6c8.5 5.8 20.1 3.6 25.9-4.9 5.8-8.5 3.6-20.1-4.9-25.9L287.1 265.1l-9.5-172.9 55.5 46.8c7.9 6.6 19.6 5.6 26.3-2.3 6.6-7.9 5.6-19.6-2.3-26.3l-88.5-74.5c-3.5-2.9-7.7-4.4-12.1-4.4z"  horiz-adv-x="1024" />

    
    <glyph glyph-name="customizing_gps" unicode="&#58959;" d="M507.7 40.3c-190 0-344.6 154.6-344.6 344.6 0 190 154.6 344.6 344.6 344.6 190 0 344.6-154.6 344.6-344.6 0-190-154.6-344.6-344.6-344.6z m0 645.1c-165.7 0-300.5-134.8-300.5-300.5S342 84.4 507.7 84.4s300.5 134.8 300.5 300.5-134.8 300.5-300.5 300.5zM938 347h-88.1c-12.2 0-22 9.8-22 22s9.9 22 22 22H938c12.2 0 22-9.8 22-22s-9.9-22-22-22zM174.2 347H86c-12.2 0-22 9.8-22 22s9.9 22 22 22h88.1c12.2 0 22-9.8 22-22s-9.8-22-21.9-22zM505-56.7c-12.2 0-22 9.9-22 22v88.1c0 12.2 9.8 22 22 22s22-9.9 22-22v-88.1c0-12.1-9.8-22-22-22zM505 692.5c-12.2 0-22 9.9-22 22V802.6c0 12.2 9.8 22 22 22s22-9.9 22-22v-88.1c0-12.2-9.8-22-22-22zM508.5 198c-97.7 0-177.2 79.5-177.2 177.2s79.5 177.2 177.2 177.2c97.7 0 177.2-79.5 177.2-177.2S606.2 198 508.5 198z m0 310.3c-73.4 0-133.1-59.7-133.1-133.1 0-73.4 59.7-133.1 133.1-133.1 73.4 0 133.1 59.7 133.1 133.1 0 73.3-59.7 133.1-133.1 133.1z"  horiz-adv-x="1024" />

    
    <glyph glyph-name="customizing_Security" unicode="&#58960;" d="M512-63.9C265-63.9 64.1 137 64.1 384S265 832 512 832s447.9-200.9 447.9-447.9-200.9-448-447.9-448z m0 851.1c-222.3 0-403.1-180.9-403.1-403.1S289.7-19.1 512-19.1 915.1 161.8 915.1 384 734.3 787.2 512 787.2zM509.2 115.2c-154.9 0-280.9 126-280.9 280.9S354.3 677 509.2 677c37.9 0 74.7-7.4 109.3-22.1 11.4-4.8 16.7-18 11.9-29.4-4.8-11.4-18-16.7-29.4-11.9-29.1 12.3-60 18.5-91.9 18.5C378.9 632.1 273 526.2 273 396c0.1-130.1 106-236 236.2-236s236.1 105.9 236.1 236.1c0 50.3-15.6 98.3-45.1 138.9-7.3 10-5.1 24 4.9 31.3 10 7.3 24 5.1 31.3-4.9 35.1-48.3 53.7-105.4 53.7-165.3 0-154.9-126-280.9-280.9-280.9zM937.5 369h-851c-12.4 0-22.4 10.1-22.4 22.5s10 22.5 22.4 22.5h851.1c12.4 0 22.4-10.1 22.4-22.5S949.9 369 937.5 369zM512-64c-12.3 0-22.3 10-22.4 22.3l-7 839.8c-0.1 12.4 9.8 18.9 22.2 18.9h0.2c12.3 0 22.3-6.2 22.4-18.5l7-841.7c0.1-12.4-9.8-20.8-22.2-20.8h-0.2zM388.8 589.3c0-34.6-28.1-62.7-62.7-62.7s-62.7 28.1-62.7 62.7 28.1 62.7 62.7 62.7 62.7-28 62.7-62.7zM836.7 395.2c0-34.6-28.1-62.7-62.7-62.7s-62.7 28.1-62.7 62.7 28.1 62.7 62.7 62.7 62.7-28.1 62.7-62.7z"  horiz-adv-x="1024" />

    
    <glyph glyph-name="datadisplay" unicode="&#58961;" d="M128.3 151.2h47.2V-64h-47.2zM363.6 266.4h47.2V-64h-47.2zM626.4 341.5h47.2V-64h-47.2zM864.2 474.1h47.2V-64h-47.2zM102.5 248.8L71.2 284l332.1 295.2 109.9-112.3 291 267.3 31.9-34.7-324.7-298.3-110.3 112.9zM887.7 581.7L952.8 832l-270.3-47.5z"  horiz-adv-x="1024" />

    
    <glyph glyph-name="fruit" unicode="&#58962;" d="M675.1 724H355.8c-11.8 0-21.3 9.7-21.3 21.5S344 767 355.8 767h319.3c11.8 0 21.3-9.7 21.3-21.5s-9.6-21.5-21.3-21.5zM312.9 1.1C175.7 1.1 64 112.8 64 250c0 137.3 111.7 249 248.9 249 137.3 0 249-111.7 249-249 0-137.2-111.7-248.9-249-248.9z m0 455.3c-113.8 0-206.4-92.6-206.4-206.4 0-113.8 92.6-206.4 206.4-206.4 113.8 0 206.4 92.6 206.4 206.4 0 113.8-92.6 206.4-206.4 206.4zM783.3 114c-97.4 0-176.7 79.3-176.7 176.7 0 97.5 79.3 176.8 176.7 176.8 97.5 0 176.7-79.3 176.7-176.8 0-97.4-79.3-176.7-176.7-176.7z m0 310.9c-74 0-134.2-60.2-134.2-134.2 0-74 60.2-134.2 134.2-134.2 74 0 134.2 60.2 134.2 134.2-0.1 74-60.3 134.2-134.2 134.2zM693.9 396.7c-4.7 0-9.5 1.6-13.5 4.8-6.4 5.2-156.8 131.1-114.1 343.1 2.3 11.5 13.5 19 25.1 16.7 11.5-2.3 19-13.6 16.7-25.1-37.8-187.1 97.9-300.6 99.3-301.7 9.1-7.4 10.4-20.8 3-29.9-4.2-5.2-10.3-7.9-16.5-7.9zM313 456.4c-1.9 0-3.8 0.3-5.7 0.8-11.3 3.1-18 14.9-14.8 26.2C341.3 660.1 502 754.8 508.8 758.8c10.2 5.9 23.2 2.4 29.1-7.7 5.9-10.2 2.4-23.2-7.7-29.1-1.5-0.9-152.5-90.4-196.7-249.9-2.6-9.5-11.2-15.7-20.5-15.7zM236 277c-1.6 0-3.3 0.2-4.9 0.6-11.4 2.7-18.5 14.2-15.8 25.6 18.2 76.7 74 88.9 101 84.6 11.6-1.8 19.5-12.7 17.7-24.4-1.8-11.5-12.5-19.4-24.1-17.7-6.7 0.8-40.2 2-53.2-52.4-2.3-9.8-11.1-16.3-20.7-16.3z"  horiz-adv-x="1024" />

    
    <glyph glyph-name="drug" unicode="&#58963;" d="M303.9-59.6c-63.8 0-123.5 25.1-168.2 70.5l-4.1 4.2C87.5 60 63.5 119.5 64 182.5c0.6 63 25.6 122 70.5 166.1l420.3 411.5c44.3 43.6 103 67.6 165.2 67.6 63.8 0 123.5-25 168.2-70.5l4.2-4.2c44.1-44.9 68.1-104.3 67.5-167.3-0.6-63-25.6-122-70.5-166.1L469.1 7.9c-44.3-43.5-103-67.5-165.2-67.5z m416.2 837.9c-49.2 0-95.6-19-130.7-53.5L169.1 313.4c-35.5-34.9-55.3-81.6-55.8-131.4-0.4-49.8 18.5-96.8 53.5-132.4l4.1-4.2c35.3-36 82.6-55.8 133-55.8 49.2 0 95.6 19 130.7 53.5l420.3 411.5c35.5 34.9 55.3 81.6 55.8 131.4 0.4 49.8-18.5 96.8-53.5 132.4l-4.2 4.2c-35.2 35.9-82.5 55.7-132.9 55.7zM630.8 197.1c-10.2 0-19.7 6.4-23.3 16.5-19 54.2-179.7 197.4-276.5 274.9-10.6 8.5-12.3 24-3.8 34.6 8.5 10.6 24 12.3 34.6 3.8 26.8-21.4 262.3-211.8 292.2-297.1 4.5-12.8-2.3-26.9-15.1-31.4-2.7-0.8-5.4-1.3-8.1-1.3zM543.8 483.1c-6.3 0-12.6 2.4-17.4 7.2-9.6 9.6-9.6 25.2 0 34.9l73.6 73.6c9.6 9.6 25.2 9.6 34.8 0 9.6-9.6 9.6-25.2 0-34.8l-73.6-73.6c-4.8-4.9-11.1-7.3-17.4-7.3zM730 659.8c0-21.8-17.6-39.4-39.4-39.4-21.8 0-39.4 17.6-39.4 39.4 0 21.8 17.6 39.4 39.4 39.4 21.7 0 39.4-17.6 39.4-39.4z"  horiz-adv-x="1024" />

    
    <glyph glyph-name="electronics" unicode="&#58964;" d="M936 123.1c-13.4 0-24 10.8-24 24.2V377c0 217.5-179.2 394.4-399.5 394.4S113 594.5 113 377v-229.7c0-13.4-11.1-24.2-24.5-24.2S64 133.9 64 147.3V377C64 621.2 265 819.9 512 819.9S960 621.2 960 377v-229.7c0-13.4-10.6-24.2-24-24.2zM651.2-52c-37.6 0-62.6 12.9-65.4 14.3-7.9 4.2-12.8 12.5-12.8 21.4V313.6c0 10.2 6.4 19.2 15.9 22.7 24 8.8 48.2 13.3 71.7 13.3 93.5 0 147.3-69.1 149.5-72.1 3.2-4.2 4.9-9.4 4.9-14.7v-213.6c0-5.6-1.9-11.1-5.4-15.5-58.5-70.8-118.4-85.7-158.4-85.7zM621 0.5c8-2 17.9-4 30.1-4 40.3 0 79.9 21.3 115.9 61.6V253.8c-13 13.8-50.4 47.3-106.5 47.3-12.8 0-25.5-1.8-39.5-5.3v-295.3zM373.8-51.9c-40 0-99.9 14.9-158.4 85.7-3.6 4.3-5.4 9.8-5.4 15.4V262.8c0 5.3 1.6 10.5 4.9 14.7 2.2 2.9 56.1 72.1 149.6 72.1 23.5 0 47.6-4.5 71.7-13.3 9.5-3.5 15.9-12.6 15.9-22.7v-329.9c0-8.9-4.9-17.1-12.8-21.4-2.8-1.4-27.9-14.2-65.5-14.2zM258 58.2c36-40.3 75.6-61.6 115.9-61.6 12.1 0 22.1 1.9 30.1 3.9V295.9c-14 3.5-26.7 5.3-39.5 5.3-55.9 0-93.5-33.7-106.5-47.4v-195.6z"  horiz-adv-x="1024" />

    
    <glyph glyph-name="customizing_veriface" unicode="&#58965;" d="M85 559c-11.6 0-21 9.4-21 21V783c0 11.6 9.4 21 21 21h217c11.6 0 21-9.4 21-21s-9.4-21-21-21H106v-182c0-11.6-9.4-21-21-21zM302-36H85c-11.6 0-21 9.4-21 21V188c0 11.6 9.4 21 21 21s21-9.4 21-21v-182h196c11.6 0 21-9.4 21-21s-9.4-21-21-21zM939-36H722c-11.6 0-21 9.4-21 21s9.4 21 21 21h196V188c0 11.6 9.4 21 21 21s21-9.4 21-21v-203c0-11.6-9.4-21-21-21zM939 559c-11.6 0-21 9.4-21 21V762H722c-11.6 0-21 9.4-21 21s9.4 21 21 21h217c11.6 0 21-9.4 21-21v-203c0-11.6-9.4-21-21-21zM517.3 295.3c-107.1 0-194.2 87.1-194.2 194.3s87.1 194.2 194.2 194.2 194.3-87.1 194.3-194.2-87.2-194.3-194.3-194.3z m0 346.5c-83.9 0-152.2-68.3-152.2-152.2s68.3-152.3 152.2-152.3c84 0 152.3 68.3 152.3 152.3s-68.4 152.2-152.3 152.2zM766.3 49.2c-10.2 0-19.2 6.3-20.7 16.7C715.5 265.4 559.1 286 493.3 286h-0.2c-177 0-198.5-203.5-199.4-212.2-1.1-11.6-11.3-19.5-22.9-18.3-11.5 1.1-20 10.5-18.9 22 0.3 2.5 26.5 250.5 241.2 250.5h0.3c159.7 0 269.5-95.1 293.7-255.9 1.7-11.5-6.2-21.6-17.6-23.3-1.1-0.1-2.1 0.4-3.2 0.4z"  horiz-adv-x="1024" />

    
    <glyph glyph-name="customizing_qrcode" unicode="&#58966;" d="M357.7 427H160.5c-53.2 0-96.5 43.7-96.5 96.9V721c0 53.2 43.3 97 96.5 97h197.1c53.2 0 96.3-43.8 96.3-97v-197.1c0.1-53.2-43-96.9-96.2-96.9zM160.5 774c-29.3 0-53.5-23.7-53.5-53v-197.1c0-29.3 24.2-52.9 53.5-52.9h197.1c29.3 0 53.3 23.6 53.3 52.9V721c0 29.3-24 53-53.3 53H160.5zM960 524.5c0-53.3-43.2-96.5-96.5-96.5h-197c-53.3 0-96.5 43.2-96.5 96.5v197c0 53.3 43.2 96.5 96.5 96.5h196.9c53.3 0 96.5-43.2 96.5-96.5v-197z m-44 196.3c0 29.4-23.8 53.2-53.2 53.2H666.2c-29.4 0-53.2-23.8-53.2-53.2v-196.6c0-29.4 23.8-53.2 53.2-53.2h196.6c29.4 0 53.2 23.8 53.2 53.2V720.8zM357.7-50H160.5c-53.2 0-96.5 43.8-96.5 97V244.1c0 53.2 43.3 96.9 96.5 96.9h197.1c53.2 0 96.3-43.7 96.3-96.9V47c0.1-53.2-43-97-96.2-97zM160.5 297c-29.3 0-53.5-23.6-53.5-52.9V47c0-29.3 24.2-53 53.5-53h197.1c29.3 0 53.3 23.7 53.3 53V244.1c0 29.3-24 52.9-53.3 52.9H160.5zM902.2 254h-289c-12 0-21.7 9.5-21.7 21.5s9.7 21.5 21.7 21.5h289c12 0 21.7-9.5 21.7-21.5s-9.7-21.5-21.7-21.5zM606-42.3c-12 0-22 9.7-22 21.7V181.7c0 12 10 21.7 22 21.7s22-9.7 22-21.7v-202.3c0-12-10-21.7-22-21.7zM750.5 29.9c-12 0-21.5 9.7-21.5 21.7V167.2c0 12 9.5 21.7 21.5 21.7s21.5-9.7 21.5-21.7v-115.6c0-12-9.5-21.7-21.5-21.7zM895-13.4c-12 0-22 9.7-22 21.7v159c0 12 10 21.7 22 21.7s22-9.7 22-21.7v-159c0-12-10-21.7-22-21.7z"  horiz-adv-x="1024" />

    
    <glyph glyph-name="daily_use" unicode="&#58967;" d="M350.2 731.2c-6.2 0-12.3 2.3-17.2 6.8-10.1 9.5-10.6 25.4-1.1 35.5 8.3 8.8 36.6 38.4 50.4 47.7 7.1 4.8 19.1 12.7 246.7 10.5 13.9-0.1 25-7.7 24.8-21.5-0.1-13.8-11.3-21.1-25.1-21.1h-0.2c-93.4 0-198.5-4.2-220.9-7.8-8.1-6.6-25.7-25.9-39.2-40.3-4.9-5.3-11.6-9.8-18.2-9.8zM501.5 713.6c-13.9 0-25.5 11.2-25.5 25.1v50.2c0 13.9 11.6 25.1 25.5 25.1S527 802.7 527 788.9v-50.2c0-13.8-11.6-25.1-25.5-25.1zM602 538.1c-13.9 0-25 11.2-25 25.1V618c0 38.9-28.3 70-62.1 70h-2.6c-33.9 0-61.3-31.1-61.3-70v-54.9c0-13.9-11.1-25.1-25-25.1s-25 11.2-25 25.1V618c0 66.5 49.8 121 111.3 121h2.6c61.5 0 112.1-54.4 112.1-121v-54.9c0-13.8-11.1-25-25-25zM261.4-64c-6.6 0-12.9-1-17.6 3.6-4.8 4.7-7.5 9.3-7.5 16 0 2.3-0.8 227.5 10.3 388.2 6.6 95.5 56.8 210.8 258.8 220.1 125.2 5.8 262.2-67.9 272.8-213.6 5.8-80.1 9.3-376.3 9.5-388.9 0.2-13.8-10.9-21.7-24.7-21.9L261.8-64h-0.4z m257.9 577.6c-3.9 0-7.7-0.1-11.6-0.3-132.5-6.1-203.5-64.6-211-173.8-8.8-127.4-10-296.7-10.2-360.1l450.7 6.4c-1 74.8-4.3 295.5-9 360.7-8 109.7-111.2 167.1-208.9 167.1zM450.9 237H275.3c-13.9 0-25.1 11.1-25.1 25s11.2 25 25.1 25h175.6c13.9 0 25.1-11.1 25.1-25s-11.3-25-25.1-25zM450.9 86H275.3c-13.9 0-25.1 11.6-25.1 25.5s11.2 25.5 25.1 25.5h175.6c13.9 0 25.1-11.6 25.1-25.5S464.7 86 450.9 86z"  horiz-adv-x="1024" />

    
    <glyph glyph-name="fresh" unicode="&#58968;" d="M457.9 51.5c-2.8 0-5.8 0.6-8.5 1.9-6.3 3.1-10.4 9.5-10.4 16.5v140c-31 19.2-133.9 84.2-172.5 141.5-1.9 1.3-6.6 4-13.8 4-11.2 0-24.3-6.6-38-19-15.6-14.2-29.4-29-42.8-43.4-29.4-31.7-52.6-56.7-80.5-56.7-9.9 0-18.3 4.4-23.1 12.1-11.1 17.8 0.4 43.2 20 83.1 5.3 10.7 12.5 25.4 13.3 29.8 2.2 12.2 4.5 46.2-21.6 97-13 25.3-15.4 45-7.2 58.3 5.3 8.7 14.5 13.7 25.2 13.7 13.6 0 29.3-8.1 44.4-22.8 73-71.2 89.2-80.2 91.7-81.2 2.5-1.1 5.1-2.4 8-3.8 6.7-3.4 13.6-6.8 20-6.8 2.5 0 10 0 21.3 12.8 25.1 28.3 124 107.8 169.2 130.3l0.7 139.2c0 5.6 2.6 10.9 7 14.4s10.1 4.8 15.6 3.6c18-4.1 76.1-53.2 159.7-135 42.6-5 266-38 323.2-190.7 1.2-3.2 1.5-6.7 0.8-10.1-1.3-6.6-35-160.2-326.2-201.6L469 55.2c-3.3-2.4-7.2-3.7-11.1-3.7zM284.7 383.7c5.2-3.1 8.3-6 9-6.7 1-0.9 1.8-2 2.5-3.1 38.4-59.8 169.5-136.8 170.8-137.6 5.7-3.3 9-9.4 9-16v-113.5l139 104.1c2.5 1.9 5.6 3.1 8.7 3.5C862.6 247 913.7 358.5 922 382.7c-57.8 138.7-293.9 161.8-296.3 162-4.2 0.4-8.2 2.2-11.3 5.2-64.9 63.8-102.8 96.6-124.1 113.4l-0.6-117.2c0-9-6.6-16.7-15.5-18.1-18.3-4.6-132.1-89.3-162.9-124.1-8.5-9.2-17.3-16-26.6-20.2zM106.9 489.3c1.2-3.5 3-8.2 6-14 30-58.6 28.6-100.6 25.1-120.3-1.6-9-7.3-20.9-16.5-39.6-4.7-9.6-12-24.4-16.5-35.9 11.7 8.4 26.4 24.3 39.9 38.8 13.2 14.3 28.2 30.4 45.1 45.7 12.9 11.6 25.8 19.7 38.7 24.3-1 0.5-2.1 1-3 1.5-2.1 1.1-4.1 2.1-6 2.9-9.9 4.3-30.6 18.2-102.9 88.7-3.8 3.4-7.1 6-9.9 7.9zM800.7 317.9c-36.1 0-65.5 29.4-65.5 65.5s29.4 65.5 65.5 65.5 65.5-29.4 65.5-65.5-29.4-65.5-65.5-65.5z m0 94c-15.7 0-28.6-12.8-28.6-28.6 0-15.7 12.8-28.6 28.6-28.6 15.7 0 28.6 12.8 28.6 28.6s-12.8 28.6-28.6 28.6z"  horiz-adv-x="1024" />

    
    <glyph glyph-name="drink" unicode="&#58969;" d="M631.4 782H406.1c-13.8 0-25 11.2-25 25s11.2 25 25 25h225.3c13.8 0 25-11.2 25-25s-11.2-25-25-25zM529.4-63.9c-8.2 0-16.7 0.2-25.5 0.7-224.7 11.9-255.6 99-255.6 191.3 0 23.7-0.5 60.2-1.1 100.6-1.8 126.4-2.8 217.6 1.6 239.3 11 54.2 91.4 174.4 147.6 214.8l0.2 50.4c0.1 13.8 11.2 23.9 25 23.9h0.1c13.8 0 25-10.3 24.9-24.1l-0.2-64.7c0-9.4-5.4-17.8-13.8-22.1-38.2-19.1-125-140.5-134.7-188.3-3.7-18.2-1.8-149.9-0.6-228.6 0.6-40.7 1.1-77.4 1.1-101.3 0-55 0-130.3 208.2-141.3C702-23.6 727.9 98.3 728 99.5c-0.3 5.8-0.2 41.8 0 110.2 0.3 83.2 0.6 197.3-0.3 251.3-1.1 64.6-98.4 151.2-135.9 179.1-6.3 4.7-9.7 12.2-9.7 20.1V732c0 13.8 11.2 25 25 25s25-11.2 25-25v-59.5c36-28.6 144.4-121.8 146-210.6 0.9-54.5 0.4-168.8 0.2-252.3-0.2-52.8-0.4-102.7-0.1-108.8 0.9-18.4-13.8-60.1-48.9-95-32.9-32.6-93.6-69.7-199.9-69.7zM455.4 228c-38.7 0-76.4 35.8-96.1 62.6-8.2 11.1-5.7 26.8 5.4 34.9 11.2 8.2 26.8 5.8 35-5.3 10.9-14.7 45.9-51.5 62.6-39.7 5.4 3.8 11.5 8.6 18.2 13.8 43.5 34.1 134 104.8 216.1 17.3 9.4-10.1 8.9-25.9-1.2-35.4-10.1-9.4-25.9-9-35.4 1.2-47 50.2-93.2 20.9-148.7-22.5-7.5-5.9-14.3-11.2-20.4-15.4-11.6-8.1-23.6-11.5-35.5-11.5z"  horiz-adv-x="1024" />

    
    <glyph glyph-name="ipad" unicode="&#58970;" d="M848 43.7c0-59.5-48.2-107.7-107.7-107.7H283.7C224.2-64 176-15.8 176 43.7V724.3C176 783.8 224.2 832 283.7 832h456.7C799.8 832 848 783.8 848 724.3v-680.6z m-50 680.4c0 32-25.9 57.9-57.9 57.9H283.9c-32 0-57.9-25.9-57.9-57.9v-680.2c0-32 25.9-57.9 57.9-57.9h456.2c32 0 57.9 25.9 57.9 57.9V724.1zM735.1 110H289.9c-21.3 0-38.9 17.6-38.9 38.9v520c0 21.3 17.5 39.1 38.9 39.1h445.3c21.3 0 38.9-17.8 38.9-39.1v-520c-0.1-21.3-17.6-38.9-39-38.9zM301 160h423V658H301v-498zM541.9 747c0-15.1-12.3-27.4-27.4-27.4-15.1 0-27.4 12.3-27.4 27.4 0 15.1 12.3 27.4 27.4 27.4 15.2-0.1 27.4-12.3 27.4-27.4zM549.2 50.1c0-19.1-15.5-34.6-34.6-34.6S480 31 480 50.1s15.5 34.6 34.6 34.6 34.6-15.5 34.6-34.6z"  horiz-adv-x="1024" />

    
    <glyph glyph-name="jewelry" unicode="&#58971;" d="M549.1 399h-74.2C249.7 399 66.5 582.1 66.5 807.2 66.5 820.9 77.6 832 91.4 832c13.7 0 24.9-10.9 24.9-24.7 0-197.7 160.9-358.4 358.6-358.4h74.2c197.7 0 358.6 160.6 358.6 358.3 0 13.7 11.1 24.8 24.9 24.8 13.7 0 24.9-11.1 24.9-24.8 0-225.1-183.2-408.2-408.4-408.2zM510.3-64c-11.1 0-33.6 8.1-92.1 56.7-52 43.2-171.8 154.1-161.4 250.9 5.5 51.2 31.1 87.8 72.3 103 52.9 19.5 126.5 0.1 184.4-47.3 25.1 20.7 71.1 52.9 122.2 51.5 35.1-0.3 66.3-14.9 92.5-43.4 35.7-38.8 47.6-84.8 34.3-133-34.7-126.3-232.1-233.2-244.9-237-1.8-0.7-4.1-1.4-7.3-1.4zM374.7 304.6c-10.2 0-19.8-1.5-28.3-4.7-23.1-8.5-36.6-29.3-40.1-61.5-9.1-85.8 159.4-227.7 202.9-250.7 38.8 19.7 186.6 114.7 206.6 205 6.6 29.6-1.4 55.6-24.2 80.4-16.7 18.2-35.1 26.8-56.1 26.8h-0.7c-52.8 0-104.3-52.9-104.8-53.4-9.5-9.9-25.2-10.1-35.2-0.6-2.7 2.5-4.6 5.6-5.9 8.8-35 31.3-78.6 49.9-114.2 49.9zM512 249.5c-13.7 0-25 11.1-25 24.9V423.7c0 13.7 11.3 24.9 25 24.9s25-11.1 25-24.9v-149.3c0-13.7-11.3-24.9-25-24.9z"  horiz-adv-x="1024" />

    
    <glyph glyph-name="maintenance_report" unicode="&#58972;" d="M843.4-64H180.6c-20.4 0-37.1 16.6-37.1 37.1V738.7c0 20.4 16.6 37.1 37.1 37.1h68.5V731h-60.8v-750.1h647.4v750H770v44.8h73.4c20.4 0 37.1-16.6 37.1-37.1V-27c0-20.4-16.6-37-37.1-37zM735.8 638H285.7c-20.4 0-37.1 15.6-37.1 34.9V797.2c0 19.2 16.6 34.8 37.1 34.8h450.1c20.4 0 37.1-15.6 37.1-34.8v-124.3c0-19.3-16.7-34.9-37.1-34.9z m-442.3 44.8h434.6V787.2H293.5v-104.4zM305.3 489.6h396.3v-44.8H305.3zM301 325.7h396.2v-44.8H301zM305.3 171.6h278.8v-44.8H305.3z"  horiz-adv-x="1024" />

    
    <glyph glyph-name="diagnose" unicode="&#58973;" d="M475.8 278.3H331.2c-1.5 0-3.1 0.2-4.6 0.5-122.2 25-162.5 151.7-209.1 298.4l-5.7 18c-22 68.9-20.2 124.2 5.2 164.5 20.2 32 47.9 41.6 51 42.6 1.9 0.6 3.9 1 5.9 1.1l109.8 5.2c13.1 0.3 23.4-9.2 24-21.9s-9.2-23.4-21.9-24l-105.9-5c-11.1-5.3-60.4-35.6-24.4-148.5l5.7-18.1c43.6-137.3 78.2-246 172.4-266.8h132.8c26.3 27 128.1 139.9 137.6 283.3 6.9 104-2.4 139.3-6.8 149.8H447.4c-12.7 0-23 10.3-23 23s10.3 23 23 23h158.8c7.2 0.3 15.4-3.4 22-10.1 7.9-8.1 31.9-32.8 21.6-188.7C637.7 421.9 497.4 290 491.4 284.5c-4.2-4-9.8-6.2-15.6-6.2zM502.1-64c-2.9 0-5.8 0-8.8 0.1-93.7 2.5-124 60.3-126.9 90.5-0.1 0.7-0.1 1.5-0.1 2.2v306c0 12.7 10.3 23 23 23s23-10.3 23-23v-304.5c1.2-7 11.1-46.4 82.2-48.3 82.3-1.7 84.2 28.7 84.9 40.4 1 17.4 0.3 123.1 0 162.4v1.6c2.3 37.8 35.3 107.9 144.3 101.7 134.1-7.5 137.9-92.5 140.4-148.7l0.1-2.3c0.6-12.7-9.3-23.4-21.9-24-12.6-0.4-23.4 9.3-24 21.9l-0.1 2.3c-2.5 57.9-4.4 99.7-97 104.9-87.3 4.9-95.2-51-95.8-57.9 0.1-13.6 1.2-142.8 0-164.5-2.3-38.6-25.8-83.8-123.3-83.8zM832.9-58.7c-52.2 0-94.6 42.5-94.6 94.7s42.5 94.6 94.6 94.6c52.2 0 94.6-42.4 94.6-94.6 0-52.3-42.4-94.7-94.6-94.7z m0 143.3c-26.9 0-48.7-21.8-48.7-48.7 0-26.8 21.8-48.7 48.7-48.7 26.8 0 48.7 21.9 48.7 48.7 0 26.8-21.9 48.7-48.7 48.7zM444.8 249.6c0-8.6-6.9-15.5-15.5-15.5h-74.9c-8.6 0-15.5 6.9-15.5 15.5V350.3c0 8.6 6.9 15.5 15.5 15.5h74.9c8.6 0 15.5-6.9 15.5-15.5v-100.7zM315.7 753.2c0-8.6-6.9-15.5-15.5-15.5H277c-8.6 0-15.5 6.9-15.5 15.5V816.5c0 8.6 6.9 15.5 15.5 15.5h23.2c8.6 0 15.5-6.9 15.5-15.5v-63.3zM479.7 753.2c0-8.6-6.9-15.5-15.5-15.5H441c-8.6 0-15.5 6.9-15.5 15.5V816.5c0 8.6 6.9 15.5 15.5 15.5h23.2c8.6 0 15.5-6.9 15.5-15.5v-63.3z"  horiz-adv-x="1024" />

    
    <glyph glyph-name="meat" unicode="&#58974;" d="M777.5 130c-53.7 0-121.5 11.5-146.3 22-15.7 6.6-58.9 26.3-104.6 47.3-50.4 23.1-102.5 46.9-126.8 57.4-34.6 14.8-125.3 25.8-179.5 32.3-16 1.9-29.8 3.6-40 5.1-81.7 11.6-123.7 56.6-115.2 123.5C91.5 625.2 241.7 736.3 511.6 748c210.9 8.8 423.5-186.2 444.7-345.1 15.7-117.9-19-207-100.5-257.9-16.3-10.2-41.9-15-78.3-15z m-252 577.8c-4.1 0-8.1-0.1-12.1-0.3-247.3-10.7-384.6-109.9-408.1-295-2.1-16.2-8.3-65.7 80.7-78.4 9.9-1.4 23.4-3 39.1-4.9 63.6-7.7 150.7-18.2 190.6-35.3 24.8-10.6 77.2-34.6 127.8-57.8 45.4-20.8 88.4-40.1 103.5-46.4 17.8-7.7 79-18.7 130.5-18.7 38.3 0 52.5 5.9 56.8 8.6 68 42.5 95.5 115.7 81.8 218C898 534.4 710.3 707.8 525.5 707.8zM802.5 19.8c-12.6 0-26.6 1.3-42.1 4.2-75.9 14.1-184.9 41.1-273 90-73.1 40.6-107.2 51.7-174 56.6-13.1 1-27.5 1.6-42.4 2.3-72.6 3.3-147.7 6.7-169.6 45-17.7 30.9-38.5 85.9-37.4 172.4 0.1 11.2 9.3 20.6 20.5 20 11.2-0.1 20.1-9.3 20-20.5-0.8-60.4 10.6-114.3 32-151.8 10.9-19 89.4-22.5 136.3-24.7 15.3-0.7 30.1-1.4 43.5-2.3 73.1-5.4 112.3-18 190.7-61.6 65-36.1 157.6-66.5 260.7-85.6 74.9-13.9 97.1 14 127.7 52.6l4.8 6c19.7 24.6 20.3 114.2 14.4 170-1.2 11.1 6.9 21.1 18 22.2 11 1 21.1-6.9 22.2-18 1.6-15.4 14.8-152.2-23.1-199.5l-4.7-5.9c-26.7-33.8-56.6-71.4-124.5-71.4zM329.4 419c-52.2 0-97.8 46.5-103.8 88.3-2.6 18.2 2.4 35.1 14.4 48.9 18.9 21.7 55 34.7 96.7 34.7 36.3 0 81.2-11.1 97.9-42.3 7.4-13.8 12.1-36.4-7.8-66.4-34.6-52.4-72.1-63.2-97.4-63.2z m7.3 131.4c-28.8 0-55.3-8.3-66.1-20.8-4.3-5-5.8-9.7-4.9-16.4 3-21.1 31.7-53.2 63.7-53.2 28 0 50.1 24.1 63.7 44.7 7.1 10.7 9.1 18.9 5.9 24.9-5.7 10.4-28.9 20.8-62.3 20.8z"  horiz-adv-x="1024" />

    
    <glyph glyph-name="long_distance" unicode="&#58975;" d="M642.8-64H363.1c-12.4 0-22.4 10-22.4 22.4s10 22.4 22.4 22.4h279.7c12.4 0 22.4-10 22.4-22.4 0-12.4-10-22.4-22.4-22.4zM910.3-64H765.8c-12.4 0-22.4 10-22.4 22.4s10 22.4 22.4 22.4h138.4V787.2H119.9v-806.4h102.8c12.4 0 22.4-10 22.4-22.4s-10-22.4-22.4-22.4h-109c-21.3 0-38.6 17.3-38.6 38.6V793.4c0 21.3 17.3 38.6 38.6 38.6h796.7c21.3 0 38.6-17.3 38.6-38.6v-818.8c-0.1-21.3-17.4-38.6-38.7-38.6zM489.6 517.8h44.8v-339.1h-44.8zM512 138.7c-5.6 0-11.2 2.1-15.5 6.3L265.2 367.9c-8.9 8.6-9.2 22.8-0.6 31.7 8.6 8.9 22.8 9.2 31.7 0.6l215.2-207.5 201.7 207c8.6 8.9 22.8 9 31.7 0.4s9-22.8 0.4-31.7L528 145.4c-4.4-4.5-10.2-6.7-16-6.7zM486.1 581.3h48.6v-23h-48.6zM487.7 654.2h48.6v-45.9h-48.6z"  horiz-adv-x="1024" />

    
    <glyph glyph-name="precious_gift" unicode="&#58976;" d="M512.7-34c-7 0-13.6 3.1-18.1 8.5L69.2 496.8c-6 7.3-6.9 17.5-2.4 25.8l144.5 266.9c4.1 7.5 12 12.5 20.5 12.5h566.3c8.7 0 16.7-5.1 20.7-12.8L957.4 523c4.3-8.2 3.3-18.3-2.6-25.5l-424-522.9c-4.4-5.5-11-8.6-18.1-8.6zM115.2 514.2l397.4-488.1L909 515 784 755H245.7L115.2 514.2zM512 9c-9.9 0-18.7 3.3-22 12.7L227.8 771.9c-4.2 12.2 2.2 24.7 14.3 29 12.2 4.3 25.4-2.5 29.7-14.7L512.1 97l243 689c4.3 12.2 17.6 18.5 29.7 14.2 12.1-4.3 18.5-17.6 14.2-29.8L534 21.6c-3.3-9.3-12.1-12.6-22-12.6zM911.2 522H118.7c-12.9 0-23.3 10.1-23.3 23s10.4 23 23.3 23h792.5c12.9 0 23.3-10.1 23.3-23s-10.5-23-23.3-23zM698.7 532.2c-7 0-13.9 3.1-18.4 9l-155 200.4L344.8 540c-8.6-9.6-23.3-10.4-32.9-1.8-9.6 8.6-10.4 23.3-1.8 32.9l199.2 222.5c4.6 5.2 11 8.1 18.2 7.8 6.9-0.2 13.4-3.6 17.6-9l172.1-222.5c7.9-10.2 6-24.8-4.2-32.7-4.3-3.4-9.3-5-14.3-5z"  horiz-adv-x="1024" />

    
    <glyph glyph-name="repertory" unicode="&#58977;" d="M524.7 539.8H101c-20.4 0-37 16.6-37 36.9V795.1C64 815.4 80.6 832 101 832h423.8c20.4 0 37-16.6 37-36.9v-218.3c-0.1-20.4-16.7-37-37.1-37z m-415.9 44.8h408.1V787.2H108.8v-202.6zM130 484.6h382v-44.8H130zM923 36H499.3c-20.4 0-37 16.6-37 36.9V291.2c0 20.4 16.6 36.9 37 36.9H923c20.4 0 37-16.6 37-36.9V73c0-20.4-16.6-37-37-37z m-415.9 44.8h408.1V283.4H507.1v-202.6zM528.4-19.2h382V-64h-382zM861.2 423.4c-10.9 0-20.5 8-22.1 19.1-10.9 73.5-125.2 180.1-168.4 215-9.6 7.8-11.1 21.9-3.3 31.5s21.9 11.1 31.5 3.3c6.9-5.6 168.8-137.7 184.5-243.3 1.8-12.2-6.6-23.6-18.9-25.4-1.1-0.1-2.2-0.2-3.3-0.2zM368.3 76c-2.5 0-5 0.4-7.5 1.3-164.9 58.2-200.5 242.1-201.9 249.9-2.2 12.2 5.8 23.8 18 26.1 12.1 2.3 23.8-5.8 26.1-18 0.4-1.9 32.7-166.3 172.8-215.8 11.7-4.1 17.8-16.9 13.7-28.6-3.3-9.1-12-14.9-21.2-14.9z"  horiz-adv-x="1024" />

    
    <glyph glyph-name="platform" unicode="&#58978;" d="M444.5 411H115.9C87.3 411 64 434.3 64 462.9V761.1C64 789.7 87.3 813 115.9 813h328.7c28.6 0 51.9-23.3 51.9-51.9v-298.3c-0.1-28.5-23.4-51.8-52-51.8zM115.9 770.1c-4.9 0-9-4-9-9v-298.3c0-4.9 4-9 9-9h328.7c4.9 0 9 4 9 9V761.1c0 4.9-4 9-9 9H115.9zM908.1 411H579.5c-28.6 0-51.9 23.3-51.9 51.9V761.1c0 28.6 23.3 51.9 51.9 51.9h328.7c28.6 0 51.9-23.3 51.9-51.9v-298.3c-0.1-28.5-23.4-51.8-52-51.8zM579.5 770.1c-4.9 0-9-4-9-9v-298.3c0-4.9 4-9 9-9h328.7c4.9 0 9 4 9 9V761.1c0 4.9-4 9-9 9H579.5zM444.5-45H115.9C87.3-45 64-21.7 64 6.8V305.1c0 28.6 23.3 51.9 51.9 51.9h328.7c28.6 0 51.9-23.3 51.9-51.9v-298.3c-0.1-28.5-23.4-51.8-52-51.8zM115.9 314.1c-4.9 0-9-4-9-9v-298.3c0-4.9 4-9 9-9h328.7c4.9 0 9 4 9 9V305.1c0 4.9-4 9-9 9H115.9zM908.1-45H579.5c-28.6 0-51.9 23.3-51.9 51.9V305.1c0 28.6 23.3 51.9 51.9 51.9h328.7c28.6 0 51.9-23.3 51.9-51.9v-298.3c-0.1-28.5-23.4-51.8-52-51.8zM579.5 314.1c-4.9 0-9-4-9-9v-298.3c0-4.9 4-9 9-9h328.7c4.9 0 9 4 9 9V305.1c0 4.9-4 9-9 9H579.5z"  horiz-adv-x="1024" />

    
    <glyph glyph-name="restart" unicode="&#58979;" d="M512-64C281.9-64 94.8 123.2 94.8 353.2c0 171.1 107.2 327.6 266.8 389.3 11.5 4.5 24.5-1.3 29-12.8s-1.3-24.5-12.8-29C235.3 645.6 139.6 506 139.6 353.2c0-205.4 167.1-372.4 372.4-372.4 205.4 0 372.4 167.1 372.4 372.4 0 136.7-74.7 262.2-194.9 327.5-10.9 5.9-14.9 19.5-9 30.4s19.5 14.9 30.4 9C845.6 647 929.2 506.4 929.2 353.2c0-230-187.1-417.2-417.2-417.2zM512 294.7c-12.4 0-22.4 10-22.4 22.4V809.6c0 12.4 10 22.4 22.4 22.4 12.4 0 22.4-10 22.4-22.4v-492.5c0-12.3-10-22.4-22.4-22.4z"  horiz-adv-x="1024" />

    
    <glyph glyph-name="smallphone" unicode="&#58980;" d="M773 9.7c0-40.7-33-73.7-73.7-73.7H323.7c-40.7 0-73.7 33-73.7 73.7V758.3C250 799 283 832 323.7 832h375.6C740 832 773 799 773 758.3v-748.6z m-50 748.4c0 13.2-10.7 23.9-23.9 23.9H323.9c-13.2 0-23.9-10.7-23.9-23.9V10c0-13.2 10.7-23.9 23.9-23.9H699c13.2 0 23.9 10.7 23.9 23.9V758.1zM275 708h473v-50H275zM275 160h473v-50H275z"  horiz-adv-x="1024" />

    
    <glyph glyph-name="snacks" unicode="&#58981;" d="M512 146.7c-188.9 0-342.6 153.7-342.6 342.6S323.1 831.9 512 831.9c188.9 0 342.6-153.7 342.6-342.6S700.9 146.7 512 146.7z m0 635c-161.2 0-292.3-131.1-292.3-292.3S350.8 197 512 197c161.2 0 292.3 131.1 292.3 292.3S673.2 781.7 512 781.7zM540.8 315.5c-9.8 0-20.2 0.5-31.2 1.5-142.1 13.3-197.9 136.5-190.9 215.6 6.6 73.9 62.6 153.3 157.1 162.1 49.2 4.6 87.6-5.9 114.2-31.1 28.2-26.7 41.4-68.5 39.3-124.5-1.7-44.1-21.9-66.7-38.6-77.9-50.2-33.7-127.2-7.3-135.8-4.2-13 4.7-19.7 19.1-15 32.1 4.7 13 19.1 19.8 32.1 15.1 15.7-5.7 66.1-18 90.7-1.4 3.8 2.6 15.3 10.4 16.4 38.1 1.6 40.9-6.4 69.8-23.6 86.1-15.6 14.8-40.8 20.7-75 17.5-74.5-6.9-108.1-75.2-111.7-116.6-4.1-45.8 26.9-150 145.5-161.1 93.6-8.8 123.4 28.7 139.4 48.8 6.1 7.7 11.4 14.4 19.7 18.3 12.6 5.8 27.5 0.4 33.4-12.1 5.4-11.6 1.3-25.2-9.2-31.8-1.3-1.4-2.7-3.3-4.5-5.5-17-21.4-54.8-69-152.3-69zM513.9-64c-13.8 0-25.1 6.8-25.1 20.7L486.9 342c-0.1 13.9 11.1 21 25 21h0.1c13.8 0 25.1-9.1 25.1-22.9l1.9-384.2c0.1-13.9-11.1-19.9-25-19.9h-0.1z"  horiz-adv-x="1024" />

    
    <glyph glyph-name="stability" unicode="&#58982;" d="M513.8-61.5c-2.5 0-5 0.4-7.4 1.2L78.9 89.3c-6.4 2.2-11.4 7.2-13.7 13.6-2.2 6.4-1.5 13.4 2.1 19.2L499.9 819c4.1 6.5 11.2 10.5 18.9 10.5h0.1c7.7 0 14.9-4.1 18.9-10.7l418.9-688.1c3.5-5.7 4.2-12.6 2-18.9-2.2-6.3-7-11.3-13.3-13.6L521.6-60.1c-2.5-0.9-5.1-1.4-7.8-1.4z m-394 183.7l393.8-137.8 391.1 146.1-386 634.2-398.9-642.5zM914 103c-2.5 0-5.1 0.4-7.6 1.3L513.9 246.5l-386-142.1c-11.5-4.2-24.3 1.7-28.6 13.2-4.2 11.5 1.7 24.3 13.2 28.6l393.6 144.9c4.9 1.8 10.3 1.8 15.3 0l400.2-144.9c11.6-4.2 17.5-17 13.4-28.5-3.3-9-11.9-14.7-21-14.7zM513.8-53.1c-12.4 0.1-22.3 10.1-22.3 22.4l3.3 801.3c0.1 12.3 10 22.2 22.3 22.2h0.1c12.3-0.1 22.2-10.1 22.2-22.4l-3.3-801.3c0-12.3-10-22.2-22.3-22.2z"  horiz-adv-x="1024" />

    
    <glyph glyph-name="logo" unicode="&#58983;" d="M192.5 426.2c0.5 0 1 0.2 1-0.5-0.3-9.6 0.3-19.9-3.7-28.8-3.8-8.4-10.9-13.3-18.9-16.8-8-3.4-15.3-7.9-22.4-12.8-13.1-9-24.2-20.3-35.5-31.4-6.9-6.7-15.1-11.8-24.8-13.3-6.8-1-13.3 0.7-19.2 4.4-2.3 1.3-4.9 2.6-4.9 2.6s6.1 8.5 9 12.3c6.6 8.7 14.1 16.6 21.8 24.4 11.2 11.4 25.4 22.3 38.6 31.3 4.8 3.4 7.5 4.6 11.2 6.6 9.6 5.3 19.2 10.3 29.3 14.7 5.9 2.8 11.8 4.9 18.5 7.3zM133.3 397.8c-8.1 2.7-15.8 6.7-23.2 10.8-5.1 2.8-10.1 5.8-14.5 9.7-5.2 4.5-8.5 10-10 16.7-1.9 8.6 0.6 16.7 2.3 24.9 0.5 2.4 1.1 4.8 1.6 7.2 5.3-3.5 9.3-6.3 13.8-9.2 10.3-6.6 21.2-12.4 32.3-17.4 11.8-5.4 23.9-9.9 36.8-12.3 6.6-1.3 13.7-2.1 20.5-1.9-4.8-1.7-10-3.4-14.6-5.3-9.6-3.9-19-8.5-28.1-13.4-5.8-3.1-11.1-6.2-16.9-9.8zM381.4 328.6h-19.6s3 37.3 3.1 41.2c0.1 3.2 0.1 6.6-0.3 8.3-1.4 5.4-5.4 8.6-10.5 9.8-7.2 1.7-14.5 0.6-21.7-1.2-1.7-0.4-2-0.6-2-0.6l-4.4-57.5h-19.8l7.5 99h19.8s-1.9-25.7-2-27.6c3.7 1.1 7.8 1.5 11.7 1.9 8.9 0.9 17.5-0.4 25.8-3.4 9.1-3.3 15.3-9.6 15.7-19.6M251.8 409.7h-29.9l1.6 17.8h80.7l-1.8-17.8h-29.9s-3.8-33.6-4.3-38.4c-0.8-6.9-4.7-42.7-4.7-42.7h-20.7s5.2 48.3 5.7 53.1c1 7.3 3.3 28 3.3 28zM399.7 403.2s0.5-1.3 0.7-2.1c2.9-10.2 6.8-20.1 11.8-29.5 2.6-4.9 5.8-9.5 8.7-14.3 0.2-0.4 1.2-1.8 1.2-1.8l14.7 47.7h20.6l-32.9-102.3h-21.9l13.2 38.9s-0.6 1-1.7 2.4c-8.8 11.2-15.3 23.7-20.8 36.7-3.1 7.3-5.9 14.8-8.2 22.4-0.2 0.8-0.5 1.9-0.5 1.9h15.1zM661.9 423l-1.8-19.6h12.5l-1.1-14.1H659s-2.7-33.6-2.7-38.8c-0.1-5.8 0.5-6.3 6.3-6.6h0.3c2.9-0.1 5.3-0.2 5.3-0.2l-1.1-14.3s-16.3-0.9-23.3 1.3c-4.7 1.4-7.1 5.3-7.3 10.3-0.3 9 1.1 17.9 1.5 26.8 0.2 5.8 4.5 55.3 4.5 55.3h19.4zM508.2 400.5c-7.8 1.5-15.6 0.2-22.3-3.1l4.3 30.2h-17s-7-53.4-7.8-58.8c-2.7-19.3 9.7-37.4 28.5-41 19.5-3.7 38.5 9.6 42.5 29.6 3.9 20.1-8.7 39.4-28.2 43.1z m10.5-40.3c-3-13.1-13.4-21.9-23.2-19.8-9.8 2.2-15.2 14.6-12.1 27.7 3 13.1 13.4 21.9 23.2 19.8 9.7-2.2 15.1-14.6 12.1-27.7zM594.4 401.8c-20.3 3.8-40.1-9.7-44.2-30.2-4.1-20.4 9-40 29.4-43.8 20.3-3.8 40.1 9.7 44.2 30.2 4.1 20.4-9 40.1-29.4 43.8z m11-41c-3.2-13.3-14-22.3-24.1-20.1-10.2 2.2-15.8 14.8-12.7 28.2 3.2 13.3 14 22.3 24.1 20.1 10.2-2.2 15.9-14.9 12.7-28.2zM762.5 327.3h-13.3v53.3h-4s-2.3-18.8-3.7-26.8c-0.9-5.3-1.9-10.7-2.8-16-0.5-3.2-2.1-10.4-2.1-10.4l-13.7-0.1s0.3 1.5 0.7 2.8c3.1 10.4 4.7 21.1 6.5 31.7 0.9 5.5 2.8 18.9 2.8 18.9H723v13.2h26.3v14.5l-26.3-0.6v13.5s17.6-0.2 33.1 0.4c15.5 0.6 30.9 2.6 30.9 2.6v-13.2s-16.4-2-22.2-2c-1 0-2.2-0.1-2.2-0.1v-15h25.2v-13.4H779l0.5-5.7s1.2-10 2.1-15c1.4-8.5 2.8-17 5-25.3 0.2-0.8 1.6-7.3 1.6-7.3l-13.9 0.1s-0.7 3.7-1.3 7.5c-1.7 10.1-3.8 20.1-5.2 30.2-0.6 4.4-1.4 13.3-1.4 13.3l-0.4 2.3h-3.6l0.1-53.4zM831.1 379.7c0-13.6-0.1-27.3 0-40.9 0-2.1 0.3-3.4-0.9-5.9-1.2-2.5-4.3-5.6-8.3-5.6-3.7-0.1-14-0.1-14-0.1v13.3s7.4 0 8.5 1.5c1.1 1.4 0.8 3.2 0.8 5.4v77h14c-0.1-0.1-0.1-30.8-0.1-44.7zM795.5 393.3h13.1v-37.6h-13.1zM863.7 425h-10.9v-13.9h10.9v-84.3h12.9V425zM960 378.1h-27v8.6h26.9V425h-67.2v-38.3h26.9v-8.6h-27v-13.3h11.1s-0.4-2.6-0.8-4.4c-2.1-10.2-3.8-20.5-7.3-30.3-0.6-1.6-0.9-2.1-0.9-2.1h13.6l0.9 2.1s4 13.4 4.6 16.9c0.6 3.5 2.5 14.3 3 17.9h2.8v-37.5H933v37.5h2.5l3.3-14.2s2.9-12.2 5.2-19.7c0.3-1.1 1-3 1-3h13.8s-2.4 7.8-3.2 10.5c-2.3 7.6-5.5 18.5-7.1 26.4H960v13.2z m-54.3 33.6h41.8v-12.3h-41.8v12.3zM684.9 427.9v20.2h9c1.8 0 3.2-0.2 4.1-0.5 0.9-0.4 1.7-1 2.2-1.9s0.8-1.9 0.8-3c0-1.4-0.5-2.6-1.4-3.6-0.9-1-2.4-1.6-4.3-1.9 0.7-0.3 1.2-0.7 1.6-1 0.8-0.7 1.5-1.6 2.2-2.7l3.5-5.5h-3.4l-2.7 4.2c-0.8 1.2-1.4 2.1-1.9 2.8s-1 1.1-1.4 1.4c-0.4 0.3-0.8 0.4-1.2 0.5-0.3 0.1-0.8 0.1-1.5 0.1h-3.1v-9h-2.5z m2.7 11.3h5.8c1.2 0 2.2 0.1 2.9 0.4 0.7 0.3 1.2 0.7 1.6 1.2 0.4 0.6 0.5 1.2 0.5 1.8 0 1-0.3 1.7-1 2.4-0.7 0.6-1.8 0.9-3.3 0.9h-6.4v-6.7zM693.1 423.2c-8.6 0-15.6 7-15.6 15.6s7 15.6 15.6 15.6 15.6-7 15.6-15.6-7-15.6-15.6-15.6z m0 29.4c-7.6 0-13.8-6.2-13.8-13.8 0-7.6 6.2-13.8 13.8-13.8 7.6 0 13.8 6.2 13.8 13.8 0 7.6-6.2 13.8-13.8 13.8z"  horiz-adv-x="1024" />

    
    <glyph glyph-name="security" unicode="&#58984;" d="M506.2-64c-2 0-4.1 0.3-6.1 0.8C254 5.9 142.1 238 133.7 270.6c-9 34.9-2.2 351.3-0.7 414.4 0.3 12.3 9.9 22.5 22.6 21.9h3.9c171.9 0 333.2 119.5 334.9 120.7 8.7 6.5 20.9 5.9 28.8-1.6 52.8-49.9 258.9-101.4 326.6-118.4 37.1-9.3 40.1-10 44.2-22.2 1.8-5.3 2.3-6.8-14.3-423.5-0.1-2.2-0.5-4.4-1.2-6.4C800.6 30.7 524.6-59.2 512.9-63c-2.2-0.6-4.5-1-6.7-1zM177.3 662.4c-3.8-173-5.1-359.8-0.2-380.7 7.1-27.6 110.6-235.1 328.5-299.8 40.2 14.3 263.7 101.4 329.5 285.1 5.5 138.4 13.2 336.5 15 394.3-3.4 0.9-7.2 1.8-11.1 2.8-122.5 30.6-267.7 71.1-332.1 117.5-43.6-29.7-178.9-113-329.6-119.2zM498.2 253.8c-5.1 0-10.2 1.7-14.3 5.2l-129 107.8c-9.5 7.9-10.8 22.1-2.8 31.5 7.9 9.5 22.1 10.8 31.6 2.8l111.9-93.5 197.5 235.2c8 9.5 22.1 10.7 31.6 2.8 9.5-8 10.7-22.1 2.8-31.6L515.3 261.8c-4.4-5.3-10.8-8-17.1-8z"  horiz-adv-x="1024" />

    
    <glyph glyph-name="support_analyze" unicode="&#58985;" d="M80 66.9c-4.2 0-8.3 1.7-11.3 4.7s-4.7 7.1-4.7 11.3V685.1c0 8.8 7.2 16 16 16s16-7.2 16-16v-586.2l848 1.8c8.8 0 16-7.1 16-16 0-8.8-7.1-16-16-16l-864-1.8zM219.7 247.3c-4.3 0-8.6 1.7-11.8 5.2-6 6.5-5.5 16.6 1 22.6L417 465.3c5.9 5.3 14.8 5.6 20.9 0.6l119.7-98L866.4 669c6.3 6.2 16.4 6 22.6-0.3 6.2-6.3 6-16.4-0.3-22.6L569.7 335c-5.8-5.7-15-6.1-21.3-0.9l-120.1 98.3-197.9-181c-3-2.8-6.9-4.1-10.7-4.1zM879.4 466.6c-8.8 0-16 7.2-16 16V642.5H692.8c-8.8 0-16 7.2-16 16s7.2 16 16 16h186.5c8.8 0 16-7.2 16-16v-175.9c0-8.8-7.1-16-15.9-16z"  horiz-adv-x="1024" />

    
    <glyph glyph-name="support_download" unicode="&#58986;" d="M519.5 124.2c-12.5 0-22.6 10.1-22.6 22.6V809.4c0 12.5 10.1 22.6 22.6 22.6 12.5 0 22.6-10.1 22.6-22.6v-662.6c0-12.4-10.1-22.6-22.6-22.6zM522.2 106.8h-0.1c-6.2 0-12.1 2.6-16.3 7.1l-381 405.4c-8.5 9.1-8.1 23.4 1 31.9 9.1 8.6 23.4 8.1 31.9-1l364.7-388.1 367.7 382.7c8.6 9 23 9.3 31.9 0.6 9-8.6 9.3-22.9 0.6-31.9L538.4 113.8c-4.2-4.5-10.1-7-16.2-7zM911.1-64H112.9c-12.5 0-22.6 10.1-22.6 22.6V146.8c0 12.5 10.1 22.6 22.6 22.6s22.6-10.1 22.6-22.6v-165.6h752.9V146.8c0 12.5 10.1 22.6 22.6 22.6 12.5 0 22.6-10.1 22.6-22.6v-188.2c0-12.5-10.1-22.6-22.5-22.6z"  horiz-adv-x="1024" />

    
    <glyph glyph-name="support_monitoring" unicode="&#58987;" d="M450.7 7.6c-5.3 0-10.4 1.9-14.5 5.3L162.6 245.5c-9 7.7-10.5 21.1-3.3 30.6l414.1 547c3.6 4.8 9.1 7.9 15.1 8.7 6 0.7 12-0.9 16.7-4.7l299.1-237.7c4.7-3.7 7.7-9.2 8.3-15.1 0.6-5.9-1.1-11.9-4.9-16.6L468.1 15.8c-3.8-4.7-9.3-7.6-15.3-8.2h-2.1zM207.8 265.9l239.9-204 411 506.5-263.4 209.4-387.5-511.9zM338.2-64c-5.2 0-10.5 1.8-14.7 5.5l-204.6 179c-4.6 4-7.3 9.7-7.6 15.7-0.3 6 1.8 12 6 16.4l84.2 90.6c8.4 9.1 22.6 9.6 31.7 1.2 9.1-8.4 9.6-22.6 1.2-31.6L165.8 139l170.3-149 63.8 72.8c8.2 9.3 22.3 10.3 31.6 2.1 9.3-8.2 10.2-22.3 2.1-31.6L355-56.4c-4.4-5-10.6-7.6-16.8-7.6zM860.4 204.8H621.5c-12.4 0-22.4 10-22.4 22.4 0 12.4 10 22.4 22.4 22.4h238.9c12.4 0 22.4-10 22.4-22.4 0-12.4-10-22.4-22.4-22.4zM882.8 62.9c-12.4 0-22.4 10-22.4 22.4V384c0 12.4 10 22.4 22.4 22.4s22.4-10 22.4-22.4v-298.7c0-12.3-10-22.4-22.4-22.4z"  horiz-adv-x="1024" />

    
    <glyph glyph-name="support_solution" unicode="&#58988;" d="M738-64H224.4c-69.1 0-132.1 63.2-132.1 132.5v587c0 68.9 62.9 131.7 132.1 131.7h450.3c12.4 0 22.4-10 22.4-22.4s-10-22.4-22.4-22.4H224.4c-44.8 0-87.3-42.2-87.3-86.9v-587c0-44.3 43.2-87.7 87.3-87.7H738c44.2 0 86.1 42.6 86.1 87.7V578.1c0 12.4 10 22.4 22.4 22.4s22.4-10 22.4-22.4v-509.6c0-69.3-62.4-132.5-130.9-132.5zM846.5 555.7c-12.4 0-22.4 10-22.4 22.4v74.7c0 12.4 10 22.4 22.4 22.4s22.4-10 22.4-22.4v-74.7c0-12.3-10-22.4-22.4-22.4zM734.5 742.4h-59.7c-12.4 0-22.4 10-22.4 22.4s10 22.4 22.4 22.4h59.7c12.4 0 22.4-10 22.4-22.4s-10-22.4-22.4-22.4zM450.8 458.7H256.6c-12.4 0-22.4 10-22.4 22.4 0 12.4 10 22.4 22.4 22.4h194.1c12.4 0 22.4-10 22.4-22.4 0.1-12.4-10-22.4-22.3-22.4zM659.8 279.5H256.6c-12.4 0-22.4 10-22.4 22.4 0 12.4 10 22.4 22.4 22.4h403.2c12.4 0 22.4-10 22.4-22.4 0-12.4-10-22.4-22.4-22.4zM571.7 457c-5.8 0-11.6 2.2-16 6.7-8.6 8.8-8.5 23 0.4 31.7L893.6 825.6c8.8 8.6 23 8.5 31.7-0.3 8.6-8.8 8.5-23-0.3-31.7L587.4 463.4c-4.4-4.2-10-6.4-15.7-6.4z"  horiz-adv-x="1024" />

    
    <glyph glyph-name="support_upgrade" unicode="&#58989;" d="M627.2 130.1H370.8c-12.4 0-22.4 10-22.4 22.4V398.9H130.9c-9 0-17.1 5.4-20.6 13.6s-1.8 17.8 4.4 24.3L485.4 825.1c8.5 8.9 22.7 9.2 31.7 0.7l391.5-373.3c6.6-6.3 8.7-16 5.3-24.5-3.4-8.5-11.6-14.1-20.8-14.1H656.7l-7-261.9c-0.4-12.2-10.3-21.9-22.5-21.9z m-234 44.8h212.2l7 261.9c0.3 12.1 10.3 21.8 22.4 21.8h202.3L502.4 777.9 183.3 443.7h187.5c12.4 0 22.4-10 22.4-22.4v-246.4zM617.2 25.6H363.4c-12.4 0-22.4 10-22.4 22.4s10 22.4 22.4 22.4h253.9c12.4 0 22.4-10 22.4-22.4s-10.1-22.4-22.5-22.4zM617.2-64H363.4c-12.4 0-22.4 10-22.4 22.4 0 12.4 10 22.4 22.4 22.4h253.9c12.4 0 22.4-10 22.4-22.4-0.1-12.4-10.1-22.4-22.5-22.4z"  horiz-adv-x="1024" />

    
    <glyph glyph-name="btn_enquiry" unicode="&#58990;" d="M517.6 118.6c-146.2 0-265.1 118.9-265.1 265.1s118.9 265.1 265.1 265.1 265.1-118.9 265.1-265.1-118.9-265.1-265.1-265.1z m0 494.2c-126.3 0-229.1-102.8-229.1-229.1s102.8-229.1 229.1-229.1 229.1 102.8 229.1 229.1-102.8 229.1-229.1 229.1zM550.1 23.6c-9.1 0-16.9 6.9-17.9 16.1-1.1 9.9 6.1 18.8 16 19.8C713.7 77.3 838.5 216.3 838.5 383c0 179.4-145.9 325.3-325.3 325.3S187.8 562.4 187.8 383c0-33.6 5.1-66.8 15.2-98.5 3-9.5-2.2-19.6-11.7-22.6s-19.6 2.2-22.6 11.7c-11.2 35.3-16.9 72.1-16.9 109.4 0 199.3 162.1 361.4 361.4 361.4S874.5 582.3 874.5 383c0-185.1-138.6-339.6-322.5-359.3-0.6-0.1-1.2-0.1-1.9-0.1zM960 366.2c0-60.6-49.2-109.8-109.8-109.8-28.9 0 13.8 51.3 11.9 103.5-2.8 78.3-43.6 116.1-11.9 116.1 60.6 0 109.8-49.1 109.8-109.8zM64 366.2c0-60.6 59.1-105.1 119.8-105.1 28.9 0-15.8 46-14 98.2 2.8 78.3 35.8 116.8 4 116.8C113.2 476 64 426.9 64 366.2zM518 279c-61.6 0-114.9 25.1-140.5 61.5-4.1-9.8-6.3-20.1-6.3-30.8 0-59.5 67.9-107.8 151.7-107.8s151.7 48.3 151.7 107.8c0 14-3.8 27.4-10.7 39.7C641.2 308.2 584.5 279 518 279z"  horiz-adv-x="1024" />

    
    <glyph glyph-name="vegetables" unicode="&#58991;" d="M150.6-54.4c-35.2 0-67.9 9.7-69.3 10.1-6.7 2-12.2 6.8-15.1 13.1-2.9 6.3-3 13.6-0.2 20 28.2 64.9 280.2 635.6 433.3 700.1 21.4 9 44.4 13.5 68.6 13.5 84.1 0 155.4-54.8 158.4-57.1 43.4-29.1 172.1-225.1 92.1-344.9C742 185.8 229-35.8 196.9-47.2c-13.2-4.8-28.8-7.2-46.3-7.2z m-27.9 51c8.5-1.3 18.2-2.3 27.9-2.3 11.9 0 21.9 1.4 29.8 4.3C225.7 14.7 714 231.7 778 327.4c59.4 89-50.6 258.7-80.1 278.4-2 1.5-62.8 47.9-129.9 47.9-17.7 0-34.4-3.3-49.7-9.7-108.9-45.8-311.8-459.5-395.6-647.4zM826.4 544.7c-8.1 0-16.1 4.1-20.7 11.5-7.1 11.4-3.6 26.4 7.9 33.5 59.2 36.7 90.1 67.9 92 92.7 1.4 17.8-12.3 38.6-41.7 63.8-8.6 7.3-17.3 9.9-28.1 8.2-47.1-7.1-107.5-87.7-125-115.4-7.2-11.4-22.2-14.8-33.6-7.6-11.4 7.2-14.8 22.2-7.6 33.6 8.1 12.8 81.4 125.8 158.9 137.5 24.7 3.7 47.8-2.9 67-19.3 26.9-22.9 62.1-58.7 58.7-104.5-3.3-42.9-38.7-83.1-114.9-130.4-4.1-2.4-8.6-3.6-12.9-3.6zM605.1 660.5c-1.5 0-3.1 0.1-4.7 0.5-13.2 2.6-21.8 15.3-19.3 28.5 3.6 18.7 24.5 112.7 78.9 130.1 16.6 5.3 42.5 5.7 72.3-22.7 9.8-9.3 10.2-24.7 0.9-34.4-9.3-9.8-24.7-10.1-34.4-0.9-6.9 6.6-16.7 14-24 11.6-19.4-6.2-39.2-58-46-93-2.1-11.6-12.3-19.7-23.7-19.7zM824.3 409.5c-12.7 0-23.4 9.8-24.3 22.7-0.9 13.4 9.2 25 22.6 25.9 17.1 1.2 65.3 10.5 82.2 37.8 9.1 14.7 8.5 33.9-1.7 58.8-5.1 12.4 0.8 26.7 13.3 31.8 12.4 5.1 26.7-0.8 31.8-13.3 16.4-39.9 15.6-74.6-2.1-103.1-33.1-53.1-111.4-59.9-120.2-60.5-0.5 0-1.1-0.1-1.6-0.1zM536.5 375.7c-8.2 0-16.2 4.1-20.8 11.6L409.2 561.5c-7 11.5-3.4 26.5 8.1 33.5s26.5 3.4 33.5-8.1l106.5-174.1c7-11.5 3.4-26.5-8.1-33.5-4-2.4-8.4-3.6-12.7-3.6zM569.3 147.3c-7.8 0-15.5 3.7-20.2 10.7l-75.8 111.6c-7.6 11.1-4.7 26.3 6.5 33.8 11.2 7.6 26.3 4.7 33.8-6.5l75.8-111.6c7.6-11.1 4.7-26.3-6.5-33.8-4.2-2.8-8.9-4.2-13.6-4.2zM366.5 174c-6.9 0-13.9 3-18.7 8.7L242.3 308.4c-8.6 10.3-7.3 25.7 3 34.3 10.3 8.6 25.7 7.3 34.3-3L385.1 214c8.6-10.3 7.3-25.7-3-34.3-4.6-3.9-10.1-5.7-15.6-5.7z"  horiz-adv-x="1024" />

    
    <glyph glyph-name="support_train" unicode="&#58992;" d="M831.4 294.4H192.6C121.7 294.4 64 352.6 64 424.2v278C64 773.8 121.7 832 192.6 832h638.9C902.3 832 960 773.8 960 702.2v-278c0-71.6-57.7-129.8-128.6-129.8zM192.6 787.2c-46.2 0-83.8-38.1-83.8-85v-278c0-46.9 37.6-85 83.8-85h638.9c46.2 0 83.8 38.1 83.8 85v278c0 46.9-37.6 85-83.8 85H192.6zM505.5-48.7c-12.3 0-22.4 10-22.4 22.3L482 291.5c0 12.4 10 22.4 22.3 22.5h0.1c12.3 0 22.4-10 22.4-22.3l1.1-317.8c0.1-12.5-9.9-22.5-22.4-22.6 0.1 0 0.1 0 0 0zM232.7-59c-6.2 0-12.4 2.6-16.9 7.6-8.2 9.3-7.2 23.5 2.1 31.6l239.8 210.2c9.3 8.2 23.4 7.2 31.6-2.1 8.2-9.3 7.2-23.5-2.1-31.6L247.5-53.4c-4.3-3.7-9.6-5.6-14.8-5.6zM872.6-64c-4.6 0-9.2 1.4-13.1 4.3L629.7 106.8c-10 7.3-12.2 21.3-5 31.3 7.3 10 21.2 12.2 31.3 5l229.8-166.6c10-7.3 12.2-21.3 5-31.3-4.4-6-11.2-9.2-18.2-9.2z"  horiz-adv-x="1024" />

    
    <glyph glyph-name="btn_phone" unicode="&#58993;" d="M764.9-63c-111.6 0-291.5 95.1-385.7 170.4C271.3 193.7 64 452.9 64 580.4c0 128.9 77.5 229.3 192.8 249.8 42.5 7.6 117.4-41.5 141.2-107.4l5.8-15.9c22.1-60.2 47.1-128.5 16.8-169.9-7.8-10.7-18-21.9-28.8-33.8-11.7-12.9-32.6-35.9-36.7-46.7 9-8.8 28.4-28.7 52.3-53.1C453.7 356 537 271 560.4 250.1c5.1 2.4 12.8 7 18.8 10.6 18.3 10.8 41 24.3 68.1 32.1 43.9 12.5 188.1 14.1 261.6-30.1 26.4-15.9 42.5-36.5 47.7-61.1 20-94.9-50.8-236.9-158.7-261.2-10.1-2.3-21.2-3.4-33-3.4zM267.2 786.4c-0.9 0-1.8-0.1-2.6-0.2-94.7-16.8-155.9-97.6-155.9-205.8 0-109.1 197.6-357.5 298.4-438.1C515 56 709-33.9 788.1-16c83 18.7 140.6 133.2 124.8 208.4-2.6 12.2-11.4 22.6-27 32-61.6 37.1-194.1 34.6-226.2 25.4-21.5-6.2-41.5-18-57.6-27.5-22.7-13.5-40.6-24.1-58.5-15.1-9.7 4.8-36.5 30.5-168.3 165-25.7 26.2-47.9 48.9-54.3 55-31.5 30.2 5.2 70.5 37.6 106.1 10 11 19.4 21.4 25.9 30.2 16.2 22.1-6.3 83.3-22.7 128.1l-5.9 16.2c-17.4 48.1-69.2 78.6-88.7 78.6z"  horiz-adv-x="1024" />

    
    <glyph glyph-name="transactiondetail" unicode="&#58994;" d="M897.2-64H126.8c-29.4 0-53.4 23.9-53.4 53.4V752.2c0 29.4 23.9 53.4 53.4 53.4H270c12.7 0 23-10.3 23-23s-10.3-23-23-23H126.8c-4.1 0-7.4-3.3-7.4-7.4v-762.8c0-4.1 3.3-7.4 7.4-7.4h770.4c4.1 0 7.4 3.3 7.4 7.4V752.2c0 4.1-3.3 7.4-7.4 7.4H747.7c-12.7 0-23 10.3-23 23s10.3 23 23 23h149.5c29.4 0 53.4-24 53.4-53.4v-762.8c0-29.5-24-53.4-53.4-53.4zM747.7 535.3H258.6c-12.7 0-23 10.3-23 23s10.3 23 23 23h489.1c12.7 0 23-10.3 23-23s-10.3-23-23-23zM759.1 374.4H270c-12.7 0-23 10.3-23 23s10.3 23 23 23h489.1c12.7 0 23-10.3 23-23s-10.3-23-23-23zM747.7 199.6H258.6c-12.7 0-23 10.3-23 23s10.3 23 23 23h489.1c12.7 0 23-10.3 23-23s-10.3-23-23-23zM662.8 790.2c0-16.8-13.6-30.4-30.4-30.4H387.8c-16.8 0-30.4 13.6-30.4 30.4V801.6c0 16.8 13.6 30.4 30.4 30.4h244.5c16.8 0 30.4-13.6 30.4-30.4l0.1-11.4z"  horiz-adv-x="1024" />

    
    <glyph glyph-name="advertisement" unicode="&#58995;" d="M926.3 192.6H97.7c-18.6 0-33.7 15.1-33.7 33.7v530c0 18.6 15.1 33.7 33.7 33.7h828.6c18.6 0 33.7-15.1 33.7-33.7v-530c0-18.6-15.1-33.7-33.7-33.7z m-821.7 40.6h814.8V749.5H104.6v-516.3zM500.8 375.6H442l-19 58h-92l-18.6-58H254l92.6 253H410l90.8-253z m-90.5 99.7L381.6 563c-1.9 5.6-3.2 12.9-3.9 22.1h-1.5c-0.6-7.4-2.1-14.5-4.4-21.4l-28.9-88.4h67.4zM532.8 375.6v253h87.4c89.8 0 134.8-41.1 134.8-123.3 0-39.1-12.6-70.5-37.7-94.2-25.2-23.7-57.6-35.5-97.4-35.5h-87.1z m54 209v-164.8h29.4c25.6 0 45.7 7.6 60.3 22.9 14.6 15.2 21.9 35.9 21.9 61.9 0 25.2-7.6 44.8-22.9 58.9-15.3 14.1-35.1 21.2-59.5 21.2l-29.2-0.1zM491.7 212.9h40.6V25h-40.6zM235.3 18.5h533.4v-40.6H235.3z"  horiz-adv-x="1024" />

    
    <glyph glyph-name="support_vedio" unicode="&#58996;" d="M885.3 43.7H138.7c-41.2 0-74.7 33.5-74.7 74.7v531c0 41.2 33.5 74.7 74.7 74.7h746.5c41.2 0 74.7-33.5 74.7-74.7v-531c0.1-41.1-33.4-74.7-74.6-74.7zM138.7 690.2c-22.4 0-40.7-18.3-40.7-40.7v-531c0-22.4 18.3-40.7 40.7-40.7h746.5c22.4 0 40.7 18.3 40.7 40.7v531c0 22.4-18.3 40.7-40.7 40.7H138.7zM262.5 49.4c-9.4 0-17 7.6-17 17V701.6c0 9.4 7.6 17 17 17s17-7.6 17-17v-635.1c0-9.5-7.6-17.1-17-17.1zM761.5 49.4c-9.4 0-17 7.6-17 17V701.6c0 9.4 7.6 17 17 17s17-7.6 17-17v-635.1c0-9.5-7.6-17.1-17-17.1zM256.8 463.4H98c-9.4 0-17 7.6-17 17s7.6 17 17 17h158.8c9.4 0 17-7.6 17-17s-7.6-17-17-17zM256.8 281.9H98c-9.4 0-17 7.6-17 17s7.6 17 17 17h158.8c9.4 0 17-7.6 17-17s-7.6-17-17-17zM926 463.4H767.2c-9.4 0-17 7.6-17 17s7.6 17 17 17H926c9.4 0 17-7.6 17-17s-7.6-17-17-17zM926 281.9H767.2c-9.4 0-17 7.6-17 17s7.6 17 17 17H926c9.4 0 17-7.6 17-17s-7.6-17-17-17zM619.5 391.7L432.6 494.4v-212.5zM432.6 264.9c-2.9 0-5.8 0.8-8.5 2.2-5.3 3-8.6 8.7-8.6 14.8V494.4c0 6 3.2 11.6 8.4 14.6 5.2 3.1 11.6 3.2 16.9 0.3l186.9-102.7c5.4-2.9 8.7-8.6 8.8-14.7 0.1-6.1-3.1-11.8-8.4-14.9L441.2 267.3c-2.6-1.6-5.6-2.4-8.6-2.4z m17 200.7v-154L585 391.2l-135.4 74.4z"  horiz-adv-x="1024" />

    
    <glyph glyph-name="aisle_manage" unicode="&#58997;" d="M845.1 20.8H178.9c-20.9 0-37.8 17-37.8 37.8V794.2C141 815 158 832 178.9 832h666.2C866 832 883 815 883 794.2v-735.6c0-20.9-17-37.8-37.9-37.8zM187 66.7h650V786.1H187v-719.4zM164 542.2h696v-45.9H164zM380.7 580.6c0-8.2-6.6-14.9-14.9-14.9H325c-8.2 0-14.9 6.7-14.9 14.9v91c0 8.2 6.7 14.9 14.9 14.9h40.9c8.2 0 14.9-6.6 14.9-14.9l-0.1-91zM529.3 580.6c0-8.2-6.6-14.9-14.9-14.9h-40.9c-8.2 0-14.9 6.7-14.9 14.9v91c0 8.2 6.7 14.9 14.9 14.9h40.9c8.2 0 14.9-6.6 14.9-14.9v-91zM677.9 580.6c0-8.2-6.6-14.9-14.9-14.9h-40.9c-8.2 0-14.9 6.7-14.9 14.9v91c0 8.2 6.7 14.9 14.9 14.9H663c8.2 0 14.9-6.6 14.9-14.9v-91zM384.5 342.8c0-8.2-6.7-14.9-14.9-14.9h-40.9c-8.2 0-14.9 6.6-14.9 14.9v91c0 8.2 6.6 14.9 14.9 14.9h40.9c8.2 0 14.9-6.6 14.9-14.9v-91zM533.1 342.8c0-8.2-6.7-14.9-14.9-14.9h-40.9c-8.2 0-14.9 6.6-14.9 14.9v91c0 8.2 6.6 14.9 14.9 14.9h40.9c8.2 0 14.9-6.6 14.9-14.9v-91zM681.7 342.8c0-8.2-6.7-14.9-14.9-14.9h-40.9c-8.2 0-14.9 6.6-14.9 14.9v91c0 8.2 6.6 14.9 14.9 14.9h40.9c8.2 0 14.9-6.6 14.9-14.9v-91zM180.1 266.6v-208.1H860V266.6H180.1zM737.4 92H276.7v89.2h460.7V92zM228.4 58.6H325V-64h-96.6zM692.8 58.6h96.6V-64h-96.6z"  horiz-adv-x="1024" />

    
    <glyph glyph-name="btn_qrcode" unicode="&#58998;" d="M413.5 413.9H131.3C94.2 413.9 64 444 64 481.2V763.4c0 37.1 30.2 67.3 67.3 67.3h282.2c37.1 0 67.3-30.2 67.3-67.3v-282.2c0-37.2-30.2-67.3-67.3-67.3zM131.3 785.8c-12.4 0-22.4-10.1-22.4-22.4v-282.2c0-12.4 10.1-22.4 22.4-22.4h282.2c12.4 0 22.4 10.1 22.4 22.4V763.4c0 12.4-10.1 22.4-22.4 22.4H131.3zM413.5-62.7H131.3c-37.1 0-67.3 30.2-67.3 67.3V286.8c0 37.1 30.2 67.3 67.3 67.3h282.2c37.1 0 67.3-30.2 67.3-67.3v-282.2c0-37.1-30.2-67.3-67.3-67.3z m-282.2 372c-12.4 0-22.4-10.1-22.4-22.4v-282.2c0-12.4 10.1-22.4 22.4-22.4h282.2c12.4 0 22.4 10.1 22.4 22.4V286.8c0 12.4-10.1 22.4-22.4 22.4H131.3zM892.7 413.9H610.5c-37.1 0-67.3 30.2-67.3 67.3V763.4c0 37.1 30.2 67.3 67.3 67.3h282.2c37.1 0 67.3-30.2 67.3-67.3v-282.2c0-37.2-30.2-67.3-67.3-67.3zM610.5 785.8c-12.4 0-22.4-10.1-22.4-22.4v-282.2c0-12.4 10.1-22.4 22.4-22.4h282.2c12.4 0 22.4 10.1 22.4 22.4V763.4c0 12.4-10.1 22.4-22.4 22.4H610.5zM613-47h-45V118h194V357h180v-45H807v-239H613zM957-62H792v45h120V118h45z"  horiz-adv-x="1024" />

    
    <glyph glyph-name="close_aisle" unicode="&#58999;" d="M927.9 7.2H96.1c-17.7 0-32.1 14.4-32.1 32.1V728.7c0 17.7 14.4 32.1 32.1 32.1h831.8c17.7 0 32.1-14.4 32.1-32.1v-689.3c0-17.7-14.4-32.2-32.1-32.2z m-826.2 37.7h820.7V723.1H101.7v-678.2zM283.3 18.9c-10.4 0-18.8 8.4-18.8 18.8V732c0 10.4 8.4 18.8 18.8 18.8s18.8-8.4 18.8-18.8v-694.3c0.1-10.4-8.4-18.8-18.8-18.8zM512 18c-10.4 0-18.8 8.4-18.8 18.8V731.1c0 10.4 8.4 18.8 18.8 18.8s18.8-8.4 18.8-18.8v-694.3c0-10.4-8.4-18.8-18.8-18.8zM734 18c-10.4 0-18.8 8.4-18.8 18.8V731.1c0 10.4 8.4 18.8 18.8 18.8s18.8-8.4 18.8-18.8v-694.3c0.1-10.4-8.4-18.8-18.8-18.8zM182.2 169.6c-4.3 0-8.6 1.4-12.1 4.4-8 6.7-9 18.6-2.3 26.5l227.4 270.8 214-129.4 228.2 261.5c6.8 7.8 18.8 8.6 26.6 1.8 7.8-6.8 8.6-18.7 1.8-26.6l-249-285.3-213.4 129.2-206.7-246.1c-3.7-4.5-9.1-6.8-14.5-6.8zM183.1 187.6m-40.6 0a40.6 40.6 0 1 1 81.2 0 40.6 40.6 0 1 1-81.2 0ZM393.5 449.5m-40.6 0a40.6 40.6 0 1 1 81.2 0 40.6 40.6 0 1 1-81.2 0ZM618.9 313.6m-40.6 0a40.6 40.6 0 1 1 81.2 0 40.6 40.6 0 1 1-81.2 0ZM837.6 591.1m-40.6 0a40.6 40.6 0 1 1 81.2 0 40.6 40.6 0 1 1-81.2 0Z"  horiz-adv-x="1024" />

    
    <glyph glyph-name="compatibility" unicode="&#59000;" d="M546.4-64H200c-53 0-96.1 43.1-96.1 96.1V735.9c0 53 43.1 96.1 96.1 96.1h346.4c53 0 96.1-43.1 96.1-96.1v-703.8c0-53-43.2-96.1-96.1-96.1zM200 787.2c-28.3 0-51.3-23-51.3-51.3v-703.8c0-28.3 23-51.3 51.3-51.3h346.4c28.3 0 51.3 23 51.3 51.3V735.9c0 28.3-23 51.3-51.3 51.3H200zM143.6 711.6h460.1v-44.8H143.6zM534.7 305.6c-8.4 0-16.5 4.8-20.3 12.9L443.2 471 394 365.2c-3.7-7.9-11.6-12.9-20.3-12.9-8.7 0-16.6 5.1-20.3 13L313 452.4 266.5 373c-3.7-6.3-10.2-10.4-17.5-11-7.4-0.6-14.4 2.4-19.1 8l-45.7 55c-7.9 9.5-6.6 23.6 2.9 31.5s23.6 6.6 31.5-2.9l25.3-30.4 52 88.9c4.2 7.2 12.2 11.7 20.4 11.1 8.3-0.4 15.8-5.4 19.3-13l38.1-82.2 49.2 105.6c3.7 7.9 11.6 12.9 20.3 12.9 8.7 0 16.6-5 20.3-12.9l91.5-196c5.2-11.2 0.4-24.5-10.8-29.8-3.2-1.5-6.4-2.2-9.5-2.2zM614 132.9H132.4c-12.4 0-22.4 10-22.4 22.4s10 22.4 22.4 22.4H614c12.4 0 22.4-10 22.4-22.4 0-12.3-10.1-22.4-22.4-22.4zM793.2 10.7H637.3c-12.4 0-22.4 10-22.4 22.4s10 22.4 22.4 22.4h155.9c45.3 0 82.1 36.8 82.1 82.1V436.3c0 45.3-36.8 82.1-82.1 82.1H637.3c-12.4 0-22.4 10-22.4 22.4s10 22.4 22.4 22.4h155.9c70 0 126.9-56.9 126.9-126.9v-298.7c0-70-56.9-126.9-126.9-126.9zM334.3 60.2a34.4 34.4 0 1 1 68.8 0 34.4 34.4 0 1 1-68.8 0Z"  horiz-adv-x="1024" />

    


  </font>
</defs>
</svg>
